<svg width="70" height="70" viewBox="0 0 70 70" fill="none" xmlns="http://www.w3.org/2000/svg">
<g clip-path="url(#clip0_902_14)">
<path d="M66.1366 70.0003C68.27 70.0003 70 68.2705 70 66.1369V3.8634C70 1.72949 68.27 0 66.1366 0H3.8634C1.72922 0 0 1.72949 0 3.8634V66.1369C0 68.2705 1.72922 70.0003 3.8634 70.0003H66.1366" fill="#395185"/>
<path d="M48.2986 70.0002V42.8924H57.3978L58.7601 32.3282H48.2986V25.583C48.2986 22.5243 49.1482 20.4399 53.5344 20.4399L59.1287 20.4375V10.9888C58.1607 10.86 54.8401 10.5724 50.9769 10.5724C42.9111 10.5724 37.3893 15.4956 37.3893 24.5371V32.3282H28.2668V42.8924H37.3893V70.0002H48.2986" fill="white"/>
</g>
<defs>
<clipPath id="clip0_902_14">
<rect width="70" height="70" fill="white"/>
</clipPath>
</defs>
</svg>
