<svg width="80" height="88" viewBox="0 0 80 88" fill="none" xmlns="http://www.w3.org/2000/svg">
<g clip-path="url(#clip0)" filter="url(#filter0_dd)">
<path d="M53.3333 53.3333C60.6971 53.3333 66.6667 47.3638 66.6667 40C66.6667 32.6362 60.6971 26.6666 53.3333 26.6666C45.9695 26.6666 40 32.6362 40 40C40 47.3638 45.9695 53.3333 53.3333 53.3333Z" fill="#19BCFE"/>
<path fill-rule="evenodd" clip-rule="evenodd" d="M26.6667 80C30.2029 80 33.5943 78.5953 36.0948 76.0948C38.5952 73.5943 40 70.2029 40 66.6667V53.3334H26.6667C23.1304 53.3334 19.7391 54.7381 17.2386 57.2386C14.7381 59.7391 13.3333 63.1305 13.3333 66.6667C13.3333 70.2029 14.7381 73.5943 17.2386 76.0948C19.7391 78.5953 23.1304 80 26.6667 80Z" fill="#09CF83"/>
<path fill-rule="evenodd" clip-rule="evenodd" d="M26.6667 53.3333H40V26.6666H26.6667C23.1304 26.6666 19.7391 28.0714 17.2386 30.5719C14.7381 33.0724 13.3333 36.4637 13.3333 40C13.3333 43.5362 14.7381 46.9276 17.2386 49.428C19.7391 51.9285 23.1304 53.3333 26.6667 53.3333Z" fill="#A259FF"/>
<path fill-rule="evenodd" clip-rule="evenodd" d="M26.6667 26.6667H40V0H26.6667C23.1304 0 19.7391 1.40476 17.2386 3.90524C14.7381 6.40573 13.3333 9.79711 13.3333 13.3333C13.3333 16.8696 14.7381 20.2609 17.2386 22.7614C19.7391 25.2619 23.1304 26.6667 26.6667 26.6667Z" fill="#F24E1E"/>
<path fill-rule="evenodd" clip-rule="evenodd" d="M53.3333 26.6667H40V0H53.3333C56.8696 0 60.2609 1.40476 62.7614 3.90524C65.2619 6.40573 66.6667 9.79711 66.6667 13.3333C66.6667 16.8696 65.2619 20.2609 62.7614 22.7614C60.2609 25.2619 56.8696 26.6667 53.3333 26.6667Z" fill="#FF7262"/>
</g>
<defs>
<filter id="filter0_dd" x="-4" y="0" width="88" height="88" filterUnits="userSpaceOnUse" color-interpolation-filters="sRGB">
<feFlood flood-opacity="0" result="BackgroundImageFix"/>
<feColorMatrix in="SourceAlpha" type="matrix" values="0 0 0 0 0 0 0 0 0 0 0 0 0 0 0 0 0 0 127 0"/>
<feOffset dy="4"/>
<feGaussianBlur stdDeviation="2"/>
<feColorMatrix type="matrix" values="0 0 0 0 0 0 0 0 0 0 0 0 0 0 0 0 0 0 0.25 0"/>
<feBlend mode="normal" in2="BackgroundImageFix" result="effect1_dropShadow"/>
<feColorMatrix in="SourceAlpha" type="matrix" values="0 0 0 0 0 0 0 0 0 0 0 0 0 0 0 0 0 0 127 0"/>
<feOffset dy="4"/>
<feGaussianBlur stdDeviation="2"/>
<feColorMatrix type="matrix" values="0 0 0 0 0 0 0 0 0 0 0 0 0 0 0 0 0 0 0.25 0"/>
<feBlend mode="normal" in2="effect1_dropShadow" result="effect2_dropShadow"/>
<feBlend mode="normal" in="SourceGraphic" in2="effect2_dropShadow" result="shape"/>
</filter>
<clipPath id="clip0">
<rect width="80" height="80" fill="white"/>
</clipPath>
</defs>
</svg>
