<svg width="28" height="28" viewBox="0 0 28 28" fill="none" xmlns="http://www.w3.org/2000/svg">
<path d="M14 0C11.2311 0 8.52431 0.821086 6.22202 2.35943C3.91973 3.89777 2.12532 6.08427 1.06569 8.64243C0.00606596 11.2006 -0.271181 14.0155 0.269012 16.7313C0.809205 19.447 2.14258 21.9416 4.10051 23.8995C6.05845 25.8574 8.55301 27.1908 11.2687 27.731C13.9845 28.2712 16.7994 27.9939 19.3576 26.9343C21.9157 25.8747 24.1022 24.0803 25.6406 21.778C27.1789 19.4757 28 16.7689 28 14C27.9892 10.2903 26.5107 6.73562 23.8876 4.11245C21.2644 1.48929 17.7097 0.0108167 14 0V0ZM6.20001 21.8C4.17516 19.7862 3.02544 17.0556 3.00001 14.2L13.9 25C11.0203 24.9488 8.26775 23.8049 6.20001 21.8V21.8ZM16.4 24.7L3.30001 11.6C3.75987 9.5381 4.8041 7.65238 6.30775 6.16849C7.81139 4.6846 9.71076 3.6654 11.7786 3.23285C13.8464 2.8003 15.995 2.97272 17.9674 3.72949C19.9397 4.48626 21.6522 5.79531 22.9 7.5L21.4 8.8C20.5499 7.63173 19.4375 6.67929 18.1523 6.01929C16.867 5.35929 15.4448 5.01017 14 5C12.1398 5.0114 10.3277 5.59264 8.80795 6.66542C7.28817 7.7382 6.13369 9.25099 5.50001 11L17 22.5C18.4348 21.9907 19.7182 21.1283 20.7319 19.9923C21.7455 18.8563 22.4568 17.4833 22.8 16H18V14H25C24.9865 16.4929 24.129 18.9077 22.5672 20.8508C21.0055 22.7938 18.8316 24.1507 16.4 24.7V24.7Z" fill="#663399"/>
</svg>
