<svg width="80" height="83" viewBox="0 0 80 83" fill="none" xmlns="http://www.w3.org/2000/svg">
<g filter="url(#filter0_d)">
<path d="M40 75C39.0557 75.0004 38.1279 74.752 37.31 74.28L28.75 69.2125C27.4725 68.4975 28.095 68.245 28.5175 68.0975C29.8762 67.6778 31.1771 67.0899 32.39 66.3475C32.4915 66.3005 32.6034 66.2803 32.7149 66.2886C32.8265 66.2969 32.9341 66.3335 33.0275 66.395L39.605 70.3025C39.7275 70.3673 39.8639 70.4012 40.0025 70.4012C40.1411 70.4012 40.2775 70.3673 40.4 70.3025L66.05 55.4975C66.17 55.4256 66.2693 55.3237 66.3381 55.2019C66.4069 55.0801 66.4429 54.9424 66.4425 54.8025V25.1875C66.4426 25.0454 66.4061 24.9056 66.3364 24.7817C66.2668 24.6578 66.1665 24.5539 66.045 24.48L40.395 9.6875C40.2741 9.61938 40.1376 9.5836 39.9988 9.5836C39.8599 9.5836 39.7235 9.61938 39.6025 9.6875L13.9675 24.485C13.8452 24.5573 13.7437 24.66 13.6727 24.7831C13.6018 24.9061 13.5638 25.0454 13.5625 25.1875V54.79C13.5629 54.9296 13.6003 55.0666 13.671 55.187C13.7418 55.3073 13.8432 55.4068 13.965 55.475L21 59.535C24.8125 61.44 27.1475 59.195 27.1475 56.94V27.7125C27.1475 27.5136 27.2265 27.3228 27.3672 27.1822C27.5078 27.0415 27.6986 26.9625 27.8975 26.9625H31.1475C31.3464 26.9625 31.5372 27.0415 31.6778 27.1822C31.8185 27.3228 31.8975 27.5136 31.8975 27.7125V56.9425C31.8975 62.03 29.1275 64.9425 24.3025 64.9425C22.221 64.9788 20.172 64.4221 18.395 63.3375L11.6525 59.47C10.834 58.9933 10.1548 58.3103 9.68278 57.4891C9.21076 56.6679 8.9624 55.7372 8.96251 54.79V25.1875C8.96008 24.2388 9.20738 23.3062 9.67957 22.4834C10.1518 21.6606 10.8322 20.9765 11.6525 20.5L37.305 5.69C38.1313 5.23792 39.0581 5.00098 40 5.00098C40.9419 5.00098 41.8687 5.23792 42.695 5.69L68.345 20.5C69.1634 20.9757 69.8428 21.6578 70.3152 22.4781C70.7877 23.2985 71.0367 24.2284 71.0375 25.175V54.79C71.0361 55.7372 70.7868 56.6675 70.3145 57.4886C69.8421 58.3096 69.1632 58.9927 68.345 59.47L42.695 74.28C41.8756 74.7528 40.946 75.0011 40 75Z" fill="#83CD29"/>
<path d="M35.135 44.8825C35.135 44.6836 35.214 44.4929 35.3547 44.3522C35.4953 44.2116 35.6861 44.1325 35.885 44.1325H39.2025C39.3798 44.1331 39.5511 44.1965 39.6861 44.3113C39.8211 44.4262 39.9111 44.5852 39.94 44.76C40.44 48.1375 41.94 49.8401 48.7225 49.8401C54.125 49.8401 56.4275 48.6175 56.4275 45.75C56.4275 44.0975 55.775 42.8701 47.3775 42.0476C40.3575 41.3525 36.0175 39.7975 36.0175 34.1875C36.0175 29.0125 40.38 25.925 47.6925 25.925C55.91 25.925 59.9775 28.7775 60.4925 34.8975C60.5004 34.9997 60.4872 35.1024 60.4539 35.1993C60.4205 35.2962 60.3676 35.3852 60.2985 35.4609C60.2294 35.5366 60.1455 35.5973 60.052 35.6393C59.9586 35.6813 59.8575 35.7036 59.755 35.705H56.415C56.2475 35.7027 56.0855 35.6443 55.955 35.5392C55.8245 35.4341 55.733 35.2883 55.695 35.125C54.8975 31.5725 52.945 30.4375 47.695 30.4375C41.795 30.4375 41.11 32.4925 41.11 34.0325C41.11 35.8975 41.92 36.4425 49.885 37.495C57.7675 38.5375 61.5125 40.0126 61.5125 45.5526C61.5125 51.1426 56.8525 54.3425 48.725 54.3425C37.4875 54.3575 35.135 49.205 35.135 44.8825Z" fill="#83CD29"/>
</g>
<defs>
<filter id="filter0_d" x="-4" y="0" width="88" height="88" filterUnits="userSpaceOnUse" color-interpolation-filters="sRGB">
<feFlood flood-opacity="0" result="BackgroundImageFix"/>
<feColorMatrix in="SourceAlpha" type="matrix" values="0 0 0 0 0 0 0 0 0 0 0 0 0 0 0 0 0 0 127 0"/>
<feOffset dy="4"/>
<feGaussianBlur stdDeviation="2"/>
<feColorMatrix type="matrix" values="0 0 0 0 0 0 0 0 0 0 0 0 0 0 0 0 0 0 0.25 0"/>
<feBlend mode="normal" in2="BackgroundImageFix" result="effect1_dropShadow"/>
<feBlend mode="normal" in="SourceGraphic" in2="effect1_dropShadow" result="shape"/>
</filter>
</defs>
</svg>
