<svg width="79" height="61" viewBox="0 0 79 61" fill="none" xmlns="http://www.w3.org/2000/svg">
<g filter="url(#filter0_dddd)">
<mask id="path-1-inside-1" fill="white">
<path d="M64.2748 30.1771C62.0765 30.1799 59.9077 30.6826 57.9323 31.6471C57.3138 30.6207 56.8362 29.5158 56.5123 28.3621C56.3262 27.4577 56.2832 26.5298 56.3848 25.6121C56.5985 24.6023 56.8757 23.6069 57.2148 22.6321C57.2023 22.5046 57.0623 21.9021 55.6548 21.8821C54.2473 21.8621 53.0348 22.1496 52.9048 22.5221C52.6603 23.2024 52.464 23.8992 52.3173 24.6071C51.1524 27.4808 49.7185 30.2381 48.0348 32.8421C47.0914 31.2956 46.7034 29.4737 46.9348 27.6771C47.1485 26.6673 47.4257 25.6719 47.7648 24.6971C47.7523 24.5696 47.6123 23.9671 46.2048 23.9471C44.7973 23.9271 43.5848 24.2146 43.4548 24.5871C43.3248 24.9596 43.1598 25.8371 42.8673 26.6721C42.5748 27.5071 39.1598 35.1371 38.2648 37.1046C37.8048 38.1046 37.4073 38.9196 37.1273 39.4696C37.114 39.5053 37.0972 39.5396 37.0773 39.5721L36.6948 40.3021V40.3146C36.5023 40.6596 36.2973 40.9796 36.1948 40.9796C36.016 40.2653 36.0246 39.517 36.2198 38.8071C36.7198 36.1596 37.9448 32.0446 37.9323 31.9021C37.9323 31.8246 38.1623 31.1096 37.1398 30.7396C36.9026 30.6267 36.6363 30.5902 36.3775 30.6349C36.1188 30.6797 35.8802 30.8036 35.6948 30.9896C35.6048 30.9896 35.5423 31.2071 35.5423 31.2071C35.5423 31.2071 36.6548 26.5796 33.4198 26.5796C32.16 26.833 30.9636 27.3357 29.901 28.0583C28.8384 28.7809 27.931 29.7087 27.2323 30.7871C26.3623 31.2596 24.5098 32.2696 22.5273 33.3571C21.7773 33.7796 20.9923 34.2021 20.2648 34.6071C20.2148 34.5571 20.1623 34.4921 20.1123 34.4421C16.1748 30.2471 8.93727 27.2871 9.24977 21.6746C9.36477 19.6296 10.0673 14.2596 23.1473 7.73706C33.9123 2.43206 42.4798 3.90206 43.9623 7.16206C46.0848 11.8171 39.3723 20.4596 28.2498 21.7121C27.0193 21.9617 25.7484 21.9316 24.5312 21.6239C23.3139 21.3162 22.1814 20.7389 21.2173 19.9346C20.6298 19.2946 20.5398 19.2571 20.3223 19.3846C19.9648 19.5771 20.1948 20.1521 20.3223 20.4846C20.7466 21.2524 21.3205 21.9275 22.0101 22.4698C22.6997 23.0121 23.491 23.4107 24.3373 23.6421C28.7129 24.5876 33.2749 24.1355 37.3798 22.3496C44.1298 19.7421 49.3798 12.4921 47.8398 6.41956C46.2923 0.257058 36.0648 -1.77544 26.3848 1.66956C20.3216 3.70974 14.7193 6.92331 9.89727 11.1271C4.56477 16.1146 3.72227 20.4471 4.06727 22.2646C5.31727 28.7096 14.1948 32.9021 17.7473 36.0146C17.5868 36.1058 17.4251 36.195 17.2623 36.2821C15.4848 37.1646 8.70977 40.7071 7.01227 44.4521C5.09477 48.7021 7.31977 51.7396 8.78977 52.1496C11.0048 52.6798 13.3301 52.5051 15.441 51.65C17.552 50.7948 19.3433 49.3019 20.5648 47.3796C21.6049 45.7851 22.2443 43.9628 22.4284 42.068C22.6125 40.1732 22.336 38.262 21.6223 36.4971C21.6102 36.4685 21.5933 36.4423 21.5723 36.4196L22.9648 35.6021C23.8109 35.1019 24.6678 34.6201 25.5348 34.1571C25.0143 35.6582 24.7088 37.2254 24.6273 38.8121C24.4506 41.244 25.1948 43.6534 26.7123 45.5621C26.9432 45.7608 27.2112 45.9118 27.5009 46.0062C27.7906 46.1006 28.0961 46.1366 28.3998 46.1121C29.8998 46.1121 30.5873 44.8621 31.3398 43.3771C32.2598 41.5621 33.0898 39.4521 33.0898 39.4521C33.0898 39.4521 32.0548 45.1546 34.8673 45.1546C35.8898 45.1546 36.9248 43.8246 37.3873 43.1546V43.1671L37.4648 43.0396L37.6298 42.7721V42.7471C38.0398 42.0321 38.9598 40.4071 40.3273 37.7096C42.0923 34.2321 43.7923 29.8846 43.7923 29.8846C43.9562 30.84 44.1826 31.7837 44.4698 32.7096C44.8815 33.8319 45.3685 34.9252 45.9273 35.9821C45.5173 36.5571 45.2623 36.8771 45.2623 36.8771L45.2748 36.8896C44.9423 37.3246 44.5848 37.7971 44.1873 38.2571C43.0046 39.5573 41.9073 40.9327 40.9023 42.3746C40.7529 42.6167 40.7016 42.9068 40.7587 43.1855C40.8159 43.4642 40.9772 43.7107 41.2098 43.8746C41.7361 44.1484 42.3359 44.2474 42.9223 44.1571C43.8059 44.1072 44.6747 43.9085 45.4923 43.5696C46.2823 43.2915 47.0276 42.8999 47.7048 42.4071C48.4029 41.9234 48.9648 41.2683 49.3365 40.5048C49.7082 39.7412 49.8772 38.8948 49.8273 38.0471C49.7487 36.9791 49.4759 35.9345 49.0223 34.9646C49.1498 34.7846 49.2723 34.6071 49.3923 34.4271C50.8136 32.3055 52.0947 30.0933 53.2273 27.8046C53.3912 28.76 53.6176 29.7037 53.9048 30.6296C54.2444 31.5994 54.6624 32.5401 55.1548 33.4421C53.5196 34.7001 52.2317 36.3537 51.4123 38.2471C50.6073 40.5746 51.2323 41.6221 52.4123 41.8646C53.058 41.9091 53.7036 41.7768 54.2798 41.4821C55.127 41.2036 55.9251 40.7936 56.6448 40.2671C57.4037 39.8192 58.0393 39.1897 58.4944 38.4351C58.9496 37.6806 59.21 36.8247 59.2523 35.9446C59.1955 35.066 58.9971 34.2023 58.6648 33.3871C60.8225 32.5441 63.1621 32.2753 65.4548 32.6071C71.5398 33.3221 72.7423 37.1196 72.5123 38.7196C72.4044 39.2868 72.1764 39.8243 71.8435 40.2961C71.5106 40.7678 71.0805 41.1628 70.5823 41.4546C70.1598 41.7221 70.0198 41.8121 70.0573 42.0046C70.1073 42.2871 70.3073 42.2721 70.6698 42.2221C71.5869 41.937 72.396 41.3807 72.9905 40.6264C73.585 39.8721 73.9369 38.9554 73.9998 37.9971C74.1923 34.2471 70.6123 30.1346 64.2823 30.1721L64.2748 30.1771ZM17.3248 45.9971C15.3048 48.1971 12.4923 49.0271 11.2773 48.3246C9.97227 47.5746 10.4848 44.3246 12.9648 41.9946C14.4359 40.6703 16.026 39.4844 17.7148 38.4521C18.0098 38.2721 18.4448 38.0171 18.9648 37.7021L19.1048 37.6246L19.4123 37.4321C19.8553 38.9165 19.8955 40.4922 19.5287 41.9973C19.1618 43.5025 18.4012 44.8829 17.3248 45.9971V45.9971ZM32.0273 35.9971C31.3248 37.7096 29.8548 42.0971 28.9598 41.8521C28.1923 41.6471 27.7098 38.3221 28.8073 35.0371C29.3614 33.4557 30.1686 31.9748 31.1973 30.6521C32.2973 29.4246 33.5123 29.0146 33.8048 29.5146C33.5379 31.7518 32.9388 33.9366 32.0273 35.9971V35.9971ZM44.1598 41.8021C43.8648 41.9546 43.5848 42.0521 43.4573 41.9821C43.3673 41.9321 43.5848 41.7321 43.5848 41.7321C43.5848 41.7321 45.1073 40.0946 45.7073 39.3546C46.0523 38.9196 46.4573 38.4096 46.8973 37.8321V37.9971C46.8973 39.9521 45.0048 41.2696 44.1623 41.8071L44.1598 41.8021ZM53.5198 39.6671C53.3023 39.5146 53.3398 39.0021 54.0698 37.4046C54.5773 36.3786 55.2865 35.4654 56.1548 34.7196C56.2879 35.098 56.3572 35.4959 56.3598 35.8971C56.3696 36.7509 56.0966 37.584 55.5833 38.2664C55.07 38.9488 54.3454 39.4422 53.5223 39.6696L53.5198 39.6671Z"/>
</mask>
<path d="M64.2748 30.1771C62.0765 30.1799 59.9077 30.6826 57.9323 31.6471C57.3138 30.6207 56.8362 29.5158 56.5123 28.3621C56.3262 27.4577 56.2832 26.5298 56.3848 25.6121C56.5985 24.6023 56.8757 23.6069 57.2148 22.6321C57.2023 22.5046 57.0623 21.9021 55.6548 21.8821C54.2473 21.8621 53.0348 22.1496 52.9048 22.5221C52.6603 23.2024 52.464 23.8992 52.3173 24.6071C51.1524 27.4808 49.7185 30.2381 48.0348 32.8421C47.0914 31.2956 46.7034 29.4737 46.9348 27.6771C47.1485 26.6673 47.4257 25.6719 47.7648 24.6971C47.7523 24.5696 47.6123 23.9671 46.2048 23.9471C44.7973 23.9271 43.5848 24.2146 43.4548 24.5871C43.3248 24.9596 43.1598 25.8371 42.8673 26.6721C42.5748 27.5071 39.1598 35.1371 38.2648 37.1046C37.8048 38.1046 37.4073 38.9196 37.1273 39.4696C37.114 39.5053 37.0972 39.5396 37.0773 39.5721L36.6948 40.3021V40.3146C36.5023 40.6596 36.2973 40.9796 36.1948 40.9796C36.016 40.2653 36.0246 39.517 36.2198 38.8071C36.7198 36.1596 37.9448 32.0446 37.9323 31.9021C37.9323 31.8246 38.1623 31.1096 37.1398 30.7396C36.9026 30.6267 36.6363 30.5902 36.3775 30.6349C36.1188 30.6797 35.8802 30.8036 35.6948 30.9896C35.6048 30.9896 35.5423 31.2071 35.5423 31.2071C35.5423 31.2071 36.6548 26.5796 33.4198 26.5796C32.16 26.833 30.9636 27.3357 29.901 28.0583C28.8384 28.7809 27.931 29.7087 27.2323 30.7871C26.3623 31.2596 24.5098 32.2696 22.5273 33.3571C21.7773 33.7796 20.9923 34.2021 20.2648 34.6071C20.2148 34.5571 20.1623 34.4921 20.1123 34.4421C16.1748 30.2471 8.93727 27.2871 9.24977 21.6746C9.36477 19.6296 10.0673 14.2596 23.1473 7.73706C33.9123 2.43206 42.4798 3.90206 43.9623 7.16206C46.0848 11.8171 39.3723 20.4596 28.2498 21.7121C27.0193 21.9617 25.7484 21.9316 24.5312 21.6239C23.3139 21.3162 22.1814 20.7389 21.2173 19.9346C20.6298 19.2946 20.5398 19.2571 20.3223 19.3846C19.9648 19.5771 20.1948 20.1521 20.3223 20.4846C20.7466 21.2524 21.3205 21.9275 22.0101 22.4698C22.6997 23.0121 23.491 23.4107 24.3373 23.6421C28.7129 24.5876 33.2749 24.1355 37.3798 22.3496C44.1298 19.7421 49.3798 12.4921 47.8398 6.41956C46.2923 0.257058 36.0648 -1.77544 26.3848 1.66956C20.3216 3.70974 14.7193 6.92331 9.89727 11.1271C4.56477 16.1146 3.72227 20.4471 4.06727 22.2646C5.31727 28.7096 14.1948 32.9021 17.7473 36.0146C17.5868 36.1058 17.4251 36.195 17.2623 36.2821C15.4848 37.1646 8.70977 40.7071 7.01227 44.4521C5.09477 48.7021 7.31977 51.7396 8.78977 52.1496C11.0048 52.6798 13.3301 52.5051 15.441 51.65C17.552 50.7948 19.3433 49.3019 20.5648 47.3796C21.6049 45.7851 22.2443 43.9628 22.4284 42.068C22.6125 40.1732 22.336 38.262 21.6223 36.4971C21.6102 36.4685 21.5933 36.4423 21.5723 36.4196L22.9648 35.6021C23.8109 35.1019 24.6678 34.6201 25.5348 34.1571C25.0143 35.6582 24.7088 37.2254 24.6273 38.8121C24.4506 41.244 25.1948 43.6534 26.7123 45.5621C26.9432 45.7608 27.2112 45.9118 27.5009 46.0062C27.7906 46.1006 28.0961 46.1366 28.3998 46.1121C29.8998 46.1121 30.5873 44.8621 31.3398 43.3771C32.2598 41.5621 33.0898 39.4521 33.0898 39.4521C33.0898 39.4521 32.0548 45.1546 34.8673 45.1546C35.8898 45.1546 36.9248 43.8246 37.3873 43.1546V43.1671L37.4648 43.0396L37.6298 42.7721V42.7471C38.0398 42.0321 38.9598 40.4071 40.3273 37.7096C42.0923 34.2321 43.7923 29.8846 43.7923 29.8846C43.9562 30.84 44.1826 31.7837 44.4698 32.7096C44.8815 33.8319 45.3685 34.9252 45.9273 35.9821C45.5173 36.5571 45.2623 36.8771 45.2623 36.8771L45.2748 36.8896C44.9423 37.3246 44.5848 37.7971 44.1873 38.2571C43.0046 39.5573 41.9073 40.9327 40.9023 42.3746C40.7529 42.6167 40.7016 42.9068 40.7587 43.1855C40.8159 43.4642 40.9772 43.7107 41.2098 43.8746C41.7361 44.1484 42.3359 44.2474 42.9223 44.1571C43.8059 44.1072 44.6747 43.9085 45.4923 43.5696C46.2823 43.2915 47.0276 42.8999 47.7048 42.4071C48.4029 41.9234 48.9648 41.2683 49.3365 40.5048C49.7082 39.7412 49.8772 38.8948 49.8273 38.0471C49.7487 36.9791 49.4759 35.9345 49.0223 34.9646C49.1498 34.7846 49.2723 34.6071 49.3923 34.4271C50.8136 32.3055 52.0947 30.0933 53.2273 27.8046C53.3912 28.76 53.6176 29.7037 53.9048 30.6296C54.2444 31.5994 54.6624 32.5401 55.1548 33.4421C53.5196 34.7001 52.2317 36.3537 51.4123 38.2471C50.6073 40.5746 51.2323 41.6221 52.4123 41.8646C53.058 41.9091 53.7036 41.7768 54.2798 41.4821C55.127 41.2036 55.9251 40.7936 56.6448 40.2671C57.4037 39.8192 58.0393 39.1897 58.4944 38.4351C58.9496 37.6806 59.21 36.8247 59.2523 35.9446C59.1955 35.066 58.9971 34.2023 58.6648 33.3871C60.8225 32.5441 63.1621 32.2753 65.4548 32.6071C71.5398 33.3221 72.7423 37.1196 72.5123 38.7196C72.4044 39.2868 72.1764 39.8243 71.8435 40.2961C71.5106 40.7678 71.0805 41.1628 70.5823 41.4546C70.1598 41.7221 70.0198 41.8121 70.0573 42.0046C70.1073 42.2871 70.3073 42.2721 70.6698 42.2221C71.5869 41.937 72.396 41.3807 72.9905 40.6264C73.585 39.8721 73.9369 38.9554 73.9998 37.9971C74.1923 34.2471 70.6123 30.1346 64.2823 30.1721L64.2748 30.1771ZM17.3248 45.9971C15.3048 48.1971 12.4923 49.0271 11.2773 48.3246C9.97227 47.5746 10.4848 44.3246 12.9648 41.9946C14.4359 40.6703 16.026 39.4844 17.7148 38.4521C18.0098 38.2721 18.4448 38.0171 18.9648 37.7021L19.1048 37.6246L19.4123 37.4321C19.8553 38.9165 19.8955 40.4922 19.5287 41.9973C19.1618 43.5025 18.4012 44.8829 17.3248 45.9971V45.9971ZM32.0273 35.9971C31.3248 37.7096 29.8548 42.0971 28.9598 41.8521C28.1923 41.6471 27.7098 38.3221 28.8073 35.0371C29.3614 33.4557 30.1686 31.9748 31.1973 30.6521C32.2973 29.4246 33.5123 29.0146 33.8048 29.5146C33.5379 31.7518 32.9388 33.9366 32.0273 35.9971V35.9971ZM44.1598 41.8021C43.8648 41.9546 43.5848 42.0521 43.4573 41.9821C43.3673 41.9321 43.5848 41.7321 43.5848 41.7321C43.5848 41.7321 45.1073 40.0946 45.7073 39.3546C46.0523 38.9196 46.4573 38.4096 46.8973 37.8321V37.9971C46.8973 39.9521 45.0048 41.2696 44.1623 41.8071L44.1598 41.8021ZM53.5198 39.6671C53.3023 39.5146 53.3398 39.0021 54.0698 37.4046C54.5773 36.3786 55.2865 35.4654 56.1548 34.7196C56.2879 35.098 56.3572 35.4959 56.3598 35.8971C56.3696 36.7509 56.0966 37.584 55.5833 38.2664C55.07 38.9488 54.3454 39.4422 53.5223 39.6696L53.5198 39.6671Z" fill="#CD6799"/>
<path d="M64.2748 30.1771C62.0765 30.1799 59.9077 30.6826 57.9323 31.6471C57.3138 30.6207 56.8362 29.5158 56.5123 28.3621C56.3262 27.4577 56.2832 26.5298 56.3848 25.6121C56.5985 24.6023 56.8757 23.6069 57.2148 22.6321C57.2023 22.5046 57.0623 21.9021 55.6548 21.8821C54.2473 21.8621 53.0348 22.1496 52.9048 22.5221C52.6603 23.2024 52.464 23.8992 52.3173 24.6071C51.1524 27.4808 49.7185 30.2381 48.0348 32.8421C47.0914 31.2956 46.7034 29.4737 46.9348 27.6771C47.1485 26.6673 47.4257 25.6719 47.7648 24.6971C47.7523 24.5696 47.6123 23.9671 46.2048 23.9471C44.7973 23.9271 43.5848 24.2146 43.4548 24.5871C43.3248 24.9596 43.1598 25.8371 42.8673 26.6721C42.5748 27.5071 39.1598 35.1371 38.2648 37.1046C37.8048 38.1046 37.4073 38.9196 37.1273 39.4696C37.114 39.5053 37.0972 39.5396 37.0773 39.5721L36.6948 40.3021V40.3146C36.5023 40.6596 36.2973 40.9796 36.1948 40.9796C36.016 40.2653 36.0246 39.517 36.2198 38.8071C36.7198 36.1596 37.9448 32.0446 37.9323 31.9021C37.9323 31.8246 38.1623 31.1096 37.1398 30.7396C36.9026 30.6267 36.6363 30.5902 36.3775 30.6349C36.1188 30.6797 35.8802 30.8036 35.6948 30.9896C35.6048 30.9896 35.5423 31.2071 35.5423 31.2071C35.5423 31.2071 36.6548 26.5796 33.4198 26.5796C32.16 26.833 30.9636 27.3357 29.901 28.0583C28.8384 28.7809 27.931 29.7087 27.2323 30.7871C26.3623 31.2596 24.5098 32.2696 22.5273 33.3571C21.7773 33.7796 20.9923 34.2021 20.2648 34.6071C20.2148 34.5571 20.1623 34.4921 20.1123 34.4421C16.1748 30.2471 8.93727 27.2871 9.24977 21.6746C9.36477 19.6296 10.0673 14.2596 23.1473 7.73706C33.9123 2.43206 42.4798 3.90206 43.9623 7.16206C46.0848 11.8171 39.3723 20.4596 28.2498 21.7121C27.0193 21.9617 25.7484 21.9316 24.5312 21.6239C23.3139 21.3162 22.1814 20.7389 21.2173 19.9346C20.6298 19.2946 20.5398 19.2571 20.3223 19.3846C19.9648 19.5771 20.1948 20.1521 20.3223 20.4846C20.7466 21.2524 21.3205 21.9275 22.0101 22.4698C22.6997 23.0121 23.491 23.4107 24.3373 23.6421C28.7129 24.5876 33.2749 24.1355 37.3798 22.3496C44.1298 19.7421 49.3798 12.4921 47.8398 6.41956C46.2923 0.257058 36.0648 -1.77544 26.3848 1.66956C20.3216 3.70974 14.7193 6.92331 9.89727 11.1271C4.56477 16.1146 3.72227 20.4471 4.06727 22.2646C5.31727 28.7096 14.1948 32.9021 17.7473 36.0146C17.5868 36.1058 17.4251 36.195 17.2623 36.2821C15.4848 37.1646 8.70977 40.7071 7.01227 44.4521C5.09477 48.7021 7.31977 51.7396 8.78977 52.1496C11.0048 52.6798 13.3301 52.5051 15.441 51.65C17.552 50.7948 19.3433 49.3019 20.5648 47.3796C21.6049 45.7851 22.2443 43.9628 22.4284 42.068C22.6125 40.1732 22.336 38.262 21.6223 36.4971C21.6102 36.4685 21.5933 36.4423 21.5723 36.4196L22.9648 35.6021C23.8109 35.1019 24.6678 34.6201 25.5348 34.1571C25.0143 35.6582 24.7088 37.2254 24.6273 38.8121C24.4506 41.244 25.1948 43.6534 26.7123 45.5621C26.9432 45.7608 27.2112 45.9118 27.5009 46.0062C27.7906 46.1006 28.0961 46.1366 28.3998 46.1121C29.8998 46.1121 30.5873 44.8621 31.3398 43.3771C32.2598 41.5621 33.0898 39.4521 33.0898 39.4521C33.0898 39.4521 32.0548 45.1546 34.8673 45.1546C35.8898 45.1546 36.9248 43.8246 37.3873 43.1546V43.1671L37.4648 43.0396L37.6298 42.7721V42.7471C38.0398 42.0321 38.9598 40.4071 40.3273 37.7096C42.0923 34.2321 43.7923 29.8846 43.7923 29.8846C43.9562 30.84 44.1826 31.7837 44.4698 32.7096C44.8815 33.8319 45.3685 34.9252 45.9273 35.9821C45.5173 36.5571 45.2623 36.8771 45.2623 36.8771L45.2748 36.8896C44.9423 37.3246 44.5848 37.7971 44.1873 38.2571C43.0046 39.5573 41.9073 40.9327 40.9023 42.3746C40.7529 42.6167 40.7016 42.9068 40.7587 43.1855C40.8159 43.4642 40.9772 43.7107 41.2098 43.8746C41.7361 44.1484 42.3359 44.2474 42.9223 44.1571C43.8059 44.1072 44.6747 43.9085 45.4923 43.5696C46.2823 43.2915 47.0276 42.8999 47.7048 42.4071C48.4029 41.9234 48.9648 41.2683 49.3365 40.5048C49.7082 39.7412 49.8772 38.8948 49.8273 38.0471C49.7487 36.9791 49.4759 35.9345 49.0223 34.9646C49.1498 34.7846 49.2723 34.6071 49.3923 34.4271C50.8136 32.3055 52.0947 30.0933 53.2273 27.8046C53.3912 28.76 53.6176 29.7037 53.9048 30.6296C54.2444 31.5994 54.6624 32.5401 55.1548 33.4421C53.5196 34.7001 52.2317 36.3537 51.4123 38.2471C50.6073 40.5746 51.2323 41.6221 52.4123 41.8646C53.058 41.9091 53.7036 41.7768 54.2798 41.4821C55.127 41.2036 55.9251 40.7936 56.6448 40.2671C57.4037 39.8192 58.0393 39.1897 58.4944 38.4351C58.9496 37.6806 59.21 36.8247 59.2523 35.9446C59.1955 35.066 58.9971 34.2023 58.6648 33.3871C60.8225 32.5441 63.1621 32.2753 65.4548 32.6071C71.5398 33.3221 72.7423 37.1196 72.5123 38.7196C72.4044 39.2868 72.1764 39.8243 71.8435 40.2961C71.5106 40.7678 71.0805 41.1628 70.5823 41.4546C70.1598 41.7221 70.0198 41.8121 70.0573 42.0046C70.1073 42.2871 70.3073 42.2721 70.6698 42.2221C71.5869 41.937 72.396 41.3807 72.9905 40.6264C73.585 39.8721 73.9369 38.9554 73.9998 37.9971C74.1923 34.2471 70.6123 30.1346 64.2823 30.1721L64.2748 30.1771ZM17.3248 45.9971C15.3048 48.1971 12.4923 49.0271 11.2773 48.3246C9.97227 47.5746 10.4848 44.3246 12.9648 41.9946C14.4359 40.6703 16.026 39.4844 17.7148 38.4521C18.0098 38.2721 18.4448 38.0171 18.9648 37.7021L19.1048 37.6246L19.4123 37.4321C19.8553 38.9165 19.8955 40.4922 19.5287 41.9973C19.1618 43.5025 18.4012 44.8829 17.3248 45.9971V45.9971ZM32.0273 35.9971C31.3248 37.7096 29.8548 42.0971 28.9598 41.8521C28.1923 41.6471 27.7098 38.3221 28.8073 35.0371C29.3614 33.4557 30.1686 31.9748 31.1973 30.6521C32.2973 29.4246 33.5123 29.0146 33.8048 29.5146C33.5379 31.7518 32.9388 33.9366 32.0273 35.9971V35.9971ZM44.1598 41.8021C43.8648 41.9546 43.5848 42.0521 43.4573 41.9821C43.3673 41.9321 43.5848 41.7321 43.5848 41.7321C43.5848 41.7321 45.1073 40.0946 45.7073 39.3546C46.0523 38.9196 46.4573 38.4096 46.8973 37.8321V37.9971C46.8973 39.9521 45.0048 41.2696 44.1623 41.8071L44.1598 41.8021ZM53.5198 39.6671C53.3023 39.5146 53.3398 39.0021 54.0698 37.4046C54.5773 36.3786 55.2865 35.4654 56.1548 34.7196C56.2879 35.098 56.3572 35.4959 56.3598 35.8971C56.3696 36.7509 56.0966 37.584 55.5833 38.2664C55.07 38.9488 54.3454 39.4422 53.5223 39.6696L53.5198 39.6671Z" stroke="#B04F7F" stroke-width="0.6" mask="url(#path-1-inside-1)"/>
</g>
<defs>
<filter id="filter0_dddd" x="0" y="0" width="78.0072" height="60.45" filterUnits="userSpaceOnUse" color-interpolation-filters="sRGB">
<feFlood flood-opacity="0" result="BackgroundImageFix"/>
<feColorMatrix in="SourceAlpha" type="matrix" values="0 0 0 0 0 0 0 0 0 0 0 0 0 0 0 0 0 0 127 0"/>
<feOffset dy="4"/>
<feGaussianBlur stdDeviation="2"/>
<feColorMatrix type="matrix" values="0 0 0 0 0 0 0 0 0 0 0 0 0 0 0 0 0 0 0.25 0"/>
<feBlend mode="normal" in2="BackgroundImageFix" result="effect1_dropShadow"/>
<feColorMatrix in="SourceAlpha" type="matrix" values="0 0 0 0 0 0 0 0 0 0 0 0 0 0 0 0 0 0 127 0"/>
<feOffset dy="4"/>
<feGaussianBlur stdDeviation="2"/>
<feColorMatrix type="matrix" values="0 0 0 0 0 0 0 0 0 0 0 0 0 0 0 0 0 0 0.25 0"/>
<feBlend mode="normal" in2="effect1_dropShadow" result="effect2_dropShadow"/>
<feColorMatrix in="SourceAlpha" type="matrix" values="0 0 0 0 0 0 0 0 0 0 0 0 0 0 0 0 0 0 127 0"/>
<feOffset dy="4"/>
<feGaussianBlur stdDeviation="2"/>
<feColorMatrix type="matrix" values="0 0 0 0 0 0 0 0 0 0 0 0 0 0 0 0 0 0 0.25 0"/>
<feBlend mode="normal" in2="effect2_dropShadow" result="effect3_dropShadow"/>
<feColorMatrix in="SourceAlpha" type="matrix" values="0 0 0 0 0 0 0 0 0 0 0 0 0 0 0 0 0 0 127 0"/>
<feOffset dy="4"/>
<feGaussianBlur stdDeviation="2"/>
<feColorMatrix type="matrix" values="0 0 0 0 0 0 0 0 0 0 0 0 0 0 0 0 0 0 0.25 0"/>
<feBlend mode="normal" in2="effect3_dropShadow" result="effect4_dropShadow"/>
<feBlend mode="normal" in="SourceGraphic" in2="effect4_dropShadow" result="shape"/>
</filter>
</defs>
</svg>
