<svg width="71" height="54" viewBox="0 0 71 54" fill="none" xmlns="http://www.w3.org/2000/svg">
<path d="M60.275 30.93C58.0768 30.9329 55.9079 31.4355 53.9325 32.4C53.314 31.3736 52.8364 30.2687 52.5125 29.115C52.3264 28.2106 52.2834 27.2827 52.385 26.365C52.5987 25.3552 52.8759 24.3599 53.215 23.385C53.2025 23.2575 53.0625 22.655 51.655 22.635C50.2475 22.615 49.035 22.9025 48.905 23.275C48.6606 23.9554 48.4643 24.6521 48.3175 25.36C47.1526 28.2338 45.7188 30.991 44.035 33.595C43.0917 32.0485 42.7037 30.2267 42.935 28.43C43.1487 27.4202 43.4259 26.4249 43.765 25.45C43.7525 25.3225 43.6125 24.72 42.205 24.7C40.7975 24.68 39.585 24.9675 39.455 25.34C39.325 25.7125 39.16 26.59 38.8675 27.425C38.575 28.26 35.16 35.89 34.265 37.8575C33.805 38.8575 33.4075 39.6725 33.1275 40.2225C33.1142 40.2582 33.0975 40.2925 33.0775 40.325L32.695 41.055V41.0675C32.5025 41.4125 32.2975 41.7325 32.195 41.7325C32.0162 41.0182 32.0248 40.2699 32.22 39.56C32.72 36.9125 33.945 32.7975 33.9325 32.655C33.9325 32.5775 34.1625 31.8625 33.14 31.4925C32.9029 31.3796 32.6366 31.3431 32.3778 31.3879C32.119 31.4326 31.8805 31.5565 31.695 31.7425C31.605 31.7425 31.5425 31.96 31.5425 31.96C31.5425 31.96 32.655 27.3325 29.42 27.3325C28.1602 27.5859 26.9639 28.0887 25.9013 28.8112C24.8387 29.5338 23.9313 30.4616 23.2325 31.54C22.3625 32.0125 20.51 33.0225 18.5275 34.11C17.7775 34.5325 16.9925 34.955 16.265 35.36C16.215 35.31 16.1625 35.245 16.1125 35.195C12.175 31 4.93751 28.04 5.25001 22.4275C5.36501 20.3825 6.06751 15.0125 19.1475 8.48999C29.9125 3.18499 38.48 4.65499 39.9625 7.91499C42.085 12.57 35.3725 21.2125 24.25 22.465C23.0195 22.7146 21.7487 22.6845 20.5314 22.3768C19.3141 22.0692 18.1816 21.4918 17.2175 20.6875C16.63 20.0475 16.54 20.01 16.3225 20.1375C15.965 20.33 16.195 20.905 16.3225 21.2375C16.7468 22.0054 17.3207 22.6804 18.0103 23.2227C18.6999 23.7651 19.4913 24.1637 20.3375 24.395C24.7131 25.3405 29.2751 24.8884 33.38 23.1025C40.13 20.495 45.38 13.245 43.84 7.17249C42.2925 1.00999 32.065 -1.02251 22.385 2.42249C16.3219 4.46267 10.7196 7.67624 5.89751 11.88C0.565011 16.8675 -0.27749 21.2 0.0675105 23.0175C1.31751 29.4625 10.195 33.655 13.7475 36.7675C13.587 36.8587 13.4253 36.9479 13.2625 37.035C11.485 37.9175 4.71001 41.46 3.01251 45.205C1.09501 49.455 3.32001 52.4925 4.79001 52.9025C7.00503 53.4327 9.33033 53.2581 11.4413 52.4029C13.5522 51.5478 15.3435 50.0548 16.565 48.1325C17.6052 46.538 18.2445 44.7158 18.4287 42.821C18.6128 40.9261 18.3362 39.0149 17.6225 37.25C17.6105 37.2215 17.5935 37.1952 17.5725 37.1725L18.965 36.355C19.8111 35.8548 20.668 35.373 21.535 34.91C21.0146 36.4111 20.709 37.9783 20.6275 39.565C20.4508 41.9969 21.1951 44.4064 22.7125 46.315C22.9434 46.5137 23.2115 46.6647 23.5011 46.7591C23.7908 46.8535 24.0963 46.8895 24.4 46.865C25.9 46.865 26.5875 45.615 27.34 44.13C28.26 42.315 29.09 40.205 29.09 40.205C29.09 40.205 28.055 45.9075 30.8675 45.9075C31.89 45.9075 32.925 44.5775 33.3875 43.9075V43.92L33.465 43.7925L33.63 43.525V43.5C34.04 42.785 34.96 41.16 36.3275 38.4625C38.0925 34.985 39.7925 30.6375 39.7925 30.6375C39.9565 31.5929 40.1828 32.5366 40.47 33.4625C40.8818 34.5848 41.3687 35.6781 41.9275 36.735C41.5175 37.31 41.2625 37.63 41.2625 37.63L41.275 37.6425C40.9425 38.0775 40.585 38.55 40.1875 39.01C39.0049 40.3102 37.9076 41.6856 36.9025 43.1275C36.7532 43.3697 36.7019 43.6597 36.759 43.9384C36.8161 44.2172 36.9774 44.4636 37.21 44.6275C37.7363 44.9013 38.3362 45.0003 38.9225 44.91C39.8061 44.8601 40.675 44.6615 41.4925 44.3225C42.2825 44.0445 43.0279 43.6529 43.705 43.16C44.4031 42.6764 44.965 42.0213 45.3367 41.2577C45.7084 40.4941 45.8775 39.6478 45.8275 38.8C45.7489 37.7321 45.4761 36.6875 45.0225 35.7175C45.15 35.5375 45.2725 35.36 45.3925 35.18C46.8139 33.0584 48.0949 30.8462 49.2275 28.5575C49.3915 29.5129 49.6178 30.4566 49.905 31.3825C50.2446 32.3524 50.6627 33.293 51.155 34.195C49.5199 35.453 48.2319 37.1066 47.4125 39C46.6075 41.3275 47.2325 42.375 48.4125 42.6175C49.0582 42.662 49.7038 42.5298 50.28 42.235C51.1272 41.9566 51.9253 41.5465 52.645 41.02C53.4039 40.5721 54.0395 39.9426 54.4947 39.1881C54.9499 38.4335 55.2103 37.5777 55.2525 36.6975C55.1958 35.8189 54.9974 34.9553 54.665 34.14C56.8228 33.297 59.1623 33.0282 61.455 33.36C67.54 34.075 68.7425 37.8725 68.5125 39.4725C68.4047 40.0397 68.1766 40.5772 67.8437 41.049C67.5108 41.5207 67.0808 41.9158 66.5825 42.2075C66.16 42.475 66.02 42.565 66.0575 42.7575C66.1075 43.04 66.3075 43.025 66.67 42.975C67.5871 42.6899 68.3963 42.1336 68.9908 41.3793C69.5853 40.6251 69.9371 39.7083 70 38.75C70.1925 35 66.6125 30.8875 60.2825 30.925L60.275 30.93ZM13.325 46.75C11.305 48.95 8.49251 49.78 7.27751 49.0775C5.97251 48.3275 6.48501 45.0775 8.96501 42.7475C10.4361 41.4232 12.0262 40.2374 13.715 39.205C14.01 39.025 14.445 38.77 14.965 38.455L15.105 38.3775L15.4125 38.185C15.8556 39.6695 15.8957 41.2451 15.5289 42.7502C15.1621 44.2554 14.4014 45.6358 13.325 46.75V46.75ZM28.0275 36.75C27.325 38.4625 25.855 42.85 24.96 42.605C24.1925 42.4 23.71 39.075 24.8075 35.79C25.3616 34.2086 26.1688 32.7277 27.1975 31.405C28.2975 30.1775 29.5125 29.7675 29.805 30.2675C29.5382 32.5047 28.9391 34.6896 28.0275 36.75V36.75ZM40.16 42.555C39.865 42.7075 39.585 42.805 39.4575 42.735C39.3675 42.685 39.585 42.485 39.585 42.485C39.585 42.485 41.1075 40.8475 41.7075 40.1075C42.0525 39.6725 42.4575 39.1625 42.8975 38.585V38.75C42.8975 40.705 41.005 42.0225 40.1625 42.56L40.16 42.555ZM49.52 40.42C49.3025 40.2675 49.34 39.755 50.07 38.1575C50.5776 37.1315 51.2867 36.2183 52.155 35.4725C52.2881 35.8509 52.3574 36.2488 52.36 36.65C52.3699 37.5038 52.0969 38.3369 51.5836 39.0194C51.0703 39.7018 50.3456 40.1951 49.5225 40.4225L49.52 40.42Z" fill="#CD6799"/>
</svg>
