<svg width="96" height="76" viewBox="0 0 96 76" fill="none" xmlns="http://www.w3.org/2000/svg">
<g clip-path="url(#clip0_4_45)">
<path d="M96 9.25455C92.4675 10.7735 88.6717 11.8 84.6877 12.2618C88.7546 9.89818 91.8773 6.15527 93.3476 1.69564C89.4816 3.92031 85.2518 5.48774 80.841 6.33018C77.2481 2.61855 72.1297 0.29891 66.4646 0.29891C55.5874 0.29891 46.7685 8.85018 46.7685 19.3971C46.7685 20.8942 46.9429 22.3516 47.2785 23.7498C30.9097 22.9531 16.3972 15.3498 6.68287 3.79491C4.98787 6.61564 4.01663 9.89673 4.01663 13.3964C4.01663 20.0225 7.494 25.868 12.7785 29.2931C9.65081 29.1981 6.59193 28.3789 3.85725 26.904C3.85613 26.984 3.85612 27.064 3.85612 27.1444C3.85612 36.3978 10.6451 44.1171 19.6549 45.8716C16.7546 46.6365 13.7124 46.7484 10.7606 46.1989C13.2667 53.7865 20.5406 59.308 29.1589 59.4625C22.4183 64.5847 13.9256 67.6382 4.69838 67.6382C3.10838 67.6382 1.54088 67.5476 0 67.3713C8.71613 72.7902 19.0688 75.952 30.1913 75.952C66.4189 75.952 86.229 46.8498 86.229 21.612C86.229 20.7836 86.2103 19.96 86.172 19.1411C90.0279 16.4381 93.3559 13.0902 96 9.25455" fill="#55ACEE"/>
</g>
<defs>
<clipPath id="clip0_4_45">
<rect width="96" height="76" fill="white"/>
</clipPath>
</defs>
</svg>
