<svg width="32" height="32" viewBox="0 0 32 32" fill="none" xmlns="http://www.w3.org/2000/svg">
<path d="M2 2H30V30H2V2Z" fill="#F5DE19"/>
<path d="M20.8089 23.875C21.0475 24.3596 21.4182 24.7669 21.8782 25.05C22.3382 25.3331 22.8688 25.4804 23.4089 25.475C24.4989 25.475 25.1959 24.93 25.1959 24.175C25.1959 23.275 24.4799 22.953 23.2799 22.428L22.6219 22.146C20.7219 21.337 19.4619 20.324 19.4619 18.182C19.4619 16.209 20.9619 14.706 23.3149 14.706C24.0767 14.651 24.8377 14.8215 25.5031 15.1962C26.1686 15.5709 26.709 16.1332 27.0569 16.813L24.9999 18.128C24.866 17.7909 24.6327 17.5026 24.331 17.3011C24.0294 17.0997 23.6736 16.9946 23.3109 17C23.1527 16.9842 22.9929 17.0015 22.8417 17.0508C22.6905 17.1001 22.5513 17.1804 22.4328 17.2865C22.3144 17.3927 22.2194 17.5223 22.1538 17.6672C22.0882 17.8121 22.0535 17.969 22.0519 18.128C22.0519 18.917 22.5409 19.237 23.6699 19.728L24.3279 20.01C26.5639 20.969 27.8279 21.946 27.8279 24.143C27.8279 26.512 25.9669 27.81 23.4679 27.81C22.4943 27.8721 21.5234 27.651 20.6726 27.1735C19.8217 26.696 19.1273 25.9825 18.6729 25.119L20.8089 23.875ZM11.5139 24.103C11.9269 24.836 12.3029 25.456 13.2069 25.456C14.0709 25.456 14.6169 25.118 14.6169 23.803V14.856H17.2479V23.838C17.2479 26.562 15.6479 27.802 13.3189 27.802C12.4957 27.847 11.6781 27.6419 10.9736 27.2135C10.2692 26.7851 9.7108 26.1537 9.37195 25.402L11.5139 24.103Z" fill="black"/>
</svg>
