<svg width="70" height="70" viewBox="0 0 70 70" fill="none" xmlns="http://www.w3.org/2000/svg">
<path d="M59.6433 59.6443H49.2715V43.4013C49.2715 39.528 49.2023 34.5419 43.8772 34.5419C38.4751 34.5419 37.6485 38.7621 37.6485 43.1193V59.6432H27.277V26.2412H37.2337V30.8059H37.3732C38.3696 29.1021 39.8095 27.7005 41.5395 26.7503C43.2695 25.8001 45.2248 25.337 47.1972 25.4102C57.7095 25.4102 59.6477 32.3249 59.6477 41.3204L59.6433 59.6443V59.6443ZM15.5739 21.6756C12.2497 21.6761 9.55445 18.9817 9.55391 15.6575C9.55336 12.3333 12.2475 9.63802 15.5717 9.63748C18.8959 9.63666 21.5912 12.3311 21.5917 15.6553C21.592 17.2516 20.9582 18.7827 19.8296 19.9117C18.7011 21.0407 17.1702 21.6752 15.5739 21.6756V21.6756ZM20.7599 59.6445H10.3772V26.2412H20.7596V59.6443L20.7599 59.6445ZM64.814 0.00509466H5.16551C2.34637 -0.0266241 0.0344531 2.2317 0 5.05084V64.9481C0.0333594 67.7686 2.345 70.0292 5.16523 69.9996H64.814C67.6402 70.0346 69.9609 67.7741 70 64.9481V5.04619C69.9598 2.22158 67.6389 -0.0364678 64.814 0.000446221" fill="#0A66C2"/>
</svg>
