<svg width="512" height="104" viewBox="0 0 512 104" fill="none" xmlns="http://www.w3.org/2000/svg">
<path d="M381.462 36.986V101.82H360.576V26.833L381.462 36.986Z" fill="#F37368"/>
<path d="M85.865 89.781L101.53 103.415L167.524 69.04L160.707 52.65L85.865 89.781ZM360.575 48.009L413.661 20.451L404.669 4.931L360.576 26.833V48.009H360.575Z" fill="#F7A199"/>
<path d="M211.182 31.91V101.82H191.166V2.176L211.182 31.909V31.91ZM85.865 89.78L101.53 103.414L131.699 27.992L121.981 2.175L85.865 89.78Z" fill="#F37368"/>
<path d="M121.98 2.176H142.577L180.723 101.82H159.547L121.98 2.176ZM214.228 2.176L258.176 70.2V101.819L191.166 2.175H214.228V2.176ZM295.887 2.176H316.627V101.82H295.887V2.176ZM360.576 20.451H328.666V2.176H403.073L413.661 20.451H360.576Z" fill="#F04939"/>
<path d="M475.014 63.964V101.82H454.418V63.964" fill="#F7A199"/>
<path d="M489.228 2.17599L454.418 63.964H475.014L511.13 2.17599H489.228Z" fill="#F04939"/>
<path d="M454.418 63.964L418.448 2.17599H441.074L465.296 44.528L454.418 63.964Z" fill="#F37368"/>
<path d="M8.55798 13.779C8.55798 27.559 17.115 35.825 34.23 40.177L52.36 44.383C68.605 48.154 78.468 57.437 78.468 72.521C78.613 79.048 76.438 85.43 72.521 90.651C72.521 75.567 64.689 67.445 45.978 62.513L28.138 58.453C13.78 55.26 2.75598 47.572 2.75598 31.183C2.75598 24.946 4.78598 18.709 8.55798 13.778" fill="#F04939"/>
<path d="M258.176 65.124V2.176H278.192V101.82H258.176V65.124ZM61.353 68.75C69.04 73.682 72.521 80.644 72.521 90.652C65.994 98.919 54.826 103.415 41.627 103.415C19.436 103.415 3.62698 92.392 0.289978 73.392H21.611C24.367 82.094 31.619 86.155 41.482 86.155C53.231 86.3 61.208 79.918 61.353 68.75V68.75ZM8.55798 13.634C14.794 5.512 25.528 0.580002 38.58 0.580002C61.352 0.580002 74.406 12.619 77.742 29.444H57.147C54.827 22.772 49.169 17.55 38.871 17.55C27.703 17.695 20.161 24.077 19.726 34.23C12.252 30.108 8.26698 22.046 8.55798 13.634V13.634Z" fill="#F37368"/>
</svg>
