<svg width="256" height="264" viewBox="0 0 256 264" fill="none" xmlns="http://www.w3.org/2000/svg">
<g clip-path="url(#clip0_201_13)">
<path d="M255.008 158.086C253.473 153.437 249.452 150.199 244.252 149.422C241.8 149.056 238.992 149.212 235.669 149.897C229.877 151.092 225.58 151.547 222.444 151.635C234.281 131.65 243.906 108.86 249.447 87.407C258.407 52.718 253.619 36.915 248.024 29.767C233.217 10.847 211.614 0.683001 185.552 0.372001C171.649 0.202001 159.444 2.947 153.077 4.921C147.149 3.875 140.775 3.291 134.087 3.183C121.55 2.983 110.473 5.716 101.008 11.333C95.768 9.561 87.358 7.063 77.646 5.469C54.804 1.719 36.394 4.641 22.928 14.154C6.62199 25.672 -0.93701 45.684 0.46099 73.634C0.90499 82.508 5.86899 109.508 13.685 135.114C18.177 149.832 22.967 162.054 27.922 171.444C34.949 184.759 42.468 192.6 50.909 195.416C55.64 196.992 64.236 198.096 73.277 190.566C74.423 191.954 75.952 193.333 77.981 194.614C80.558 196.239 83.709 197.567 86.856 198.354C98.197 201.189 108.82 200.48 117.883 196.506C117.939 198.118 117.982 199.658 118.018 200.988C118.078 203.145 118.138 205.26 118.217 207.238C118.754 220.612 119.664 231.011 122.36 238.287C122.508 238.687 122.707 239.297 122.917 239.944C124.262 244.062 126.511 250.956 132.233 256.355C138.158 261.948 145.325 263.663 151.889 263.663C155.181 263.663 158.322 263.231 161.077 262.641C170.897 260.536 182.05 257.33 190.118 245.842C197.746 234.982 201.454 218.625 202.125 192.852C202.212 192.123 202.292 191.427 202.369 190.764L202.529 189.402L204.326 189.56L204.789 189.591C214.791 190.047 227.021 187.926 234.532 184.437C240.467 181.683 259.486 171.642 255.008 158.086" fill="black"/>
<path d="M237.906 160.722C208.166 166.857 206.121 156.788 206.121 156.788C237.521 110.195 250.648 51.052 239.321 36.577C208.417 -2.90799 154.922 15.766 154.029 16.25L153.742 16.302C147.866 15.082 141.291 14.356 133.9 14.235C120.444 14.015 110.236 17.763 102.49 23.637C102.49 23.637 7.06001 -15.677 11.499 73.081C12.443 91.963 38.563 215.954 69.717 178.503C81.104 164.808 92.107 153.229 92.107 153.229C97.571 156.859 104.113 158.711 110.971 158.046L111.504 157.594C111.338 159.294 111.414 160.957 111.717 162.926C103.691 171.893 106.05 173.467 90.006 176.77C73.771 180.116 83.308 186.072 89.535 187.63C97.084 189.517 114.548 192.191 126.348 175.672L125.878 177.557C129.022 180.076 131.23 193.94 130.86 206.509C130.49 219.077 130.243 227.706 132.72 234.446C135.199 241.186 137.668 256.351 158.76 251.832C176.383 248.055 185.516 238.268 186.787 221.942C187.688 210.336 189.729 212.052 189.857 201.675L191.494 196.763C193.381 181.03 191.794 175.954 202.651 178.315L205.291 178.547C213.281 178.91 223.741 177.261 229.88 174.408C243.098 168.274 250.938 158.031 237.904 160.722H237.906" fill="#336791"/>
<path d="M108.076 81.525C105.396 81.152 102.969 81.497 101.741 82.427C101.051 82.95 100.837 83.556 100.779 83.973C100.625 85.078 101.399 86.3 101.875 86.93C103.221 88.714 105.187 89.94 107.133 90.21C107.415 90.25 107.696 90.268 107.975 90.268C111.22 90.268 114.171 87.741 114.431 85.876C114.756 83.54 111.365 81.983 108.076 81.526M196.86 81.599C196.604 79.768 193.346 79.246 190.254 79.676C187.166 80.106 184.172 81.5 184.422 83.335C184.622 84.762 187.199 87.198 190.249 87.198C190.507 87.198 190.767 87.181 191.029 87.144C193.065 86.862 194.559 85.569 195.269 84.824C196.349 83.688 196.975 82.422 196.86 81.599" fill="white"/>
<path d="M247.802 160.025C246.668 156.596 243.018 155.493 236.954 156.745C218.949 160.461 212.501 157.887 210.384 156.328C224.379 135.008 235.892 109.236 242.103 85.191C245.045 73.801 246.67 63.223 246.803 54.601C246.95 45.138 245.338 38.184 242.014 33.936C228.612 16.811 208.942 7.625 185.132 7.373C168.763 7.189 154.933 11.378 152.252 12.556C146.606 11.152 140.451 10.29 133.75 10.18C121.462 9.981 110.84 12.923 102.046 18.92C98.226 17.498 88.354 14.109 76.281 12.164C55.409 8.804 38.823 11.35 26.987 19.735C12.864 29.741 6.344 47.627 7.607 72.895C8.032 81.396 12.876 107.548 20.52 132.593C30.582 165.557 41.52 184.218 53.028 188.057C54.375 188.506 55.928 188.82 57.641 188.82C61.839 188.82 66.986 186.928 72.341 180.49C78.8726 172.655 85.629 165.009 92.602 157.564C97.126 159.992 102.096 161.348 107.179 161.484C107.189 161.617 107.202 161.75 107.214 161.882C106.339 162.925 105.482 163.984 104.644 165.057C101.122 169.528 100.389 170.459 89.052 172.793C85.827 173.459 77.262 175.224 77.136 181.228C77 187.788 87.261 190.543 88.43 190.835C92.504 191.855 96.429 192.358 100.172 192.358C109.275 192.358 117.286 189.366 123.688 183.577C123.491 206.963 124.466 230.007 127.274 237.028C129.574 242.776 135.192 256.823 152.938 256.822C155.542 256.822 158.408 256.519 161.561 255.843C180.082 251.873 188.125 243.687 191.236 225.64C192.901 215.995 195.758 192.964 197.102 180.61C199.938 181.495 203.589 181.9 207.536 181.899C215.768 181.899 225.267 180.15 231.224 177.385C237.916 174.277 249.992 166.651 247.802 160.025V160.025ZM203.696 76.545C203.635 80.192 203.133 83.503 202.601 86.959C202.028 90.676 201.436 94.519 201.287 99.184C201.14 103.724 201.707 108.444 202.255 113.009C203.363 122.229 204.5 131.721 200.099 141.087C199.368 139.792 198.717 138.453 198.149 137.078C197.602 135.752 196.414 133.622 194.769 130.674C188.37 119.198 173.385 92.324 181.056 81.358C183.341 78.094 189.14 74.738 203.696 76.545V76.545ZM186.052 14.758C207.386 15.229 224.262 23.21 236.21 38.478C245.374 50.189 235.283 103.476 206.07 149.447C205.776 149.073 205.481 148.701 205.184 148.33L204.814 147.868C212.363 135.401 210.887 123.066 209.573 112.13C209.033 107.642 208.523 103.403 208.653 99.421C208.787 95.201 209.345 91.581 209.885 88.081C210.548 83.768 211.223 79.305 211.037 74.044C211.176 73.492 211.232 72.84 211.159 72.066C210.684 67.021 204.924 51.922 193.184 38.256C186.762 30.781 177.397 22.416 164.61 16.774C170.11 15.634 177.631 14.571 186.052 14.758V14.758ZM66.674 175.778C60.774 182.872 56.7 181.512 55.36 181.066C46.63 178.154 36.5 159.702 27.569 130.442C19.841 105.124 15.325 79.665 14.967 72.526C13.839 49.948 19.312 34.213 31.235 25.757C50.639 11.997 82.541 20.233 95.36 24.41C95.176 24.592 94.984 24.762 94.802 24.947C73.766 46.191 74.265 82.487 74.317 84.706C74.315 85.562 74.387 86.774 74.485 88.441C74.847 94.546 75.521 105.908 73.721 118.775C72.049 130.732 75.735 142.435 83.832 150.884C84.663 151.749 85.5364 152.573 86.449 153.352C82.845 157.212 75.012 165.748 66.674 175.778V175.778ZM89.153 145.785C82.627 138.975 79.663 129.503 81.02 119.795C82.92 106.203 82.219 94.365 81.842 88.005C81.789 87.115 81.742 86.335 81.715 85.72C84.788 82.995 99.029 75.365 109.185 77.692C113.819 78.753 116.643 81.909 117.817 87.337C123.893 115.44 118.621 127.153 114.385 136.566C113.512 138.505 112.687 140.338 111.983 142.234L111.437 143.7C110.055 147.406 108.769 150.852 107.972 154.124C101.034 154.104 94.285 151.14 89.153 145.784V145.785ZM90.218 183.685C88.192 183.179 86.37 182.3 85.301 181.571C86.194 181.151 87.783 180.579 90.539 180.011C103.876 177.266 105.936 175.328 110.434 169.617C111.465 168.307 112.634 166.823 114.253 165.015L114.255 165.013C116.666 162.313 117.769 162.771 119.769 163.601C121.39 164.271 122.969 166.303 123.609 168.539C123.912 169.595 124.252 171.599 123.139 173.159C113.743 186.315 100.051 186.146 90.218 183.685V183.685ZM160.017 248.637C143.701 252.133 137.924 243.808 134.117 234.291C131.66 228.147 130.452 200.441 131.309 169.844C131.32 169.437 131.262 169.044 131.15 168.674C131.05 167.943 130.897 167.221 130.694 166.512C129.42 162.06 126.315 158.336 122.59 156.792C121.11 156.179 118.394 155.054 115.13 155.889C115.826 153.021 117.033 149.782 118.342 146.275L118.891 144.8C119.509 143.137 120.285 141.414 121.105 139.59C125.538 129.742 131.609 116.253 125.02 85.78C122.552 74.366 114.31 68.792 101.816 70.087C94.326 70.862 87.473 73.884 84.055 75.617C83.32 75.989 82.648 76.349 82.02 76.699C82.974 65.199 86.578 43.707 100.06 30.109C108.549 21.549 119.854 17.321 133.628 17.549C160.768 17.993 178.172 31.921 187.994 43.528C196.458 53.529 201.041 63.604 202.87 69.038C189.115 67.639 179.76 70.354 175.018 77.134C164.701 91.882 180.662 120.506 188.333 134.263C189.74 136.784 190.954 138.963 191.336 139.889C193.834 145.943 197.068 149.985 199.429 152.935C200.153 153.839 200.855 154.716 201.389 155.482C197.223 156.683 189.74 159.458 190.422 173.329C189.872 180.289 185.961 212.875 183.974 224.388C181.351 239.598 175.754 245.263 160.017 248.638V248.637ZM228.121 170.701C223.861 172.678 216.732 174.161 209.96 174.48C202.48 174.83 198.672 173.642 197.776 172.911C197.356 164.267 200.573 163.364 203.978 162.408C204.513 162.258 205.035 162.111 205.539 161.935C205.852 162.19 206.195 162.443 206.571 162.691C212.583 166.659 223.306 167.087 238.445 163.962L238.611 163.929C236.569 165.838 233.075 168.4 228.121 170.701Z" fill="white"/>
</g>
<defs>
<clipPath id="clip0_201_13">
<rect width="256" height="264" fill="white"/>
</clipPath>
</defs>
</svg>
