<svg width="141" height="88" viewBox="0 0 141 88" fill="none" xmlns="http://www.w3.org/2000/svg">
<g filter="url(#filter0_dd)">
<path d="M35.2777 20.8572H60.2791V22.8445H37.5695V37.8004H58.925V39.7874H37.5695V56.2076H60.5396V58.1947H35.2777V20.8572ZM62.5191 20.8572H65.1754L76.9468 37.2774L88.9786 20.857L105.344 0L78.4572 39.0032L92.3122 58.1947H89.5516L76.9468 40.7288L64.2897 58.1947H61.5814L75.5405 39.003L62.5188 20.8572H62.5191ZM93.3018 22.8445V20.857H121.793V22.8443H108.667V58.1944H106.375V22.8445H93.3018ZM4 20.857H6.86472L46.3676 79.9697L30.0432 58.1944L6.39586 23.681L6.29178 58.195H4V20.857ZM121.562 55.6075C121.094 55.6075 120.743 55.2451 120.743 54.7759C120.743 54.3073 121.094 53.9443 121.562 53.9443C122.036 53.9443 122.382 54.3071 122.382 54.7759C122.382 55.2448 122.036 55.6075 121.562 55.6075ZM123.814 53.4198H125.041C125.057 54.0839 125.542 54.5305 126.256 54.5305C127.053 54.5305 127.504 54.0505 127.504 53.1518V47.4586H128.753V53.1573C128.753 54.7759 127.816 55.7082 126.267 55.7082C124.812 55.7082 123.814 54.8039 123.814 53.4195V53.4198ZM130.386 53.3473H131.624C131.729 54.1118 132.476 54.5973 133.552 54.5973C134.556 54.5973 135.291 54.0782 135.291 53.3639C135.291 52.75 134.823 52.3816 133.758 52.1305L132.722 51.8794C131.267 51.5386 130.604 50.8355 130.604 49.6523C130.604 48.218 131.774 47.2634 133.53 47.2634C135.163 47.2634 136.356 48.2177 136.428 49.5741H135.213C135.096 48.8318 134.449 48.3684 133.513 48.3684C132.527 48.3684 131.869 48.843 131.869 49.5684C131.869 50.1432 132.292 50.4728 133.34 50.7182L134.227 50.9359C135.877 51.3212 136.557 51.9909 136.557 53.2021C136.557 54.7425 135.364 55.7082 133.458 55.7082C131.674 55.7082 130.475 54.7871 130.386 53.3471V53.3473Z" fill="black"/>
</g>
<defs>
<filter id="filter0_dd" x="0" y="0" width="140.557" height="87.9697" filterUnits="userSpaceOnUse" color-interpolation-filters="sRGB">
<feFlood flood-opacity="0" result="BackgroundImageFix"/>
<feColorMatrix in="SourceAlpha" type="matrix" values="0 0 0 0 0 0 0 0 0 0 0 0 0 0 0 0 0 0 127 0"/>
<feOffset dy="4"/>
<feGaussianBlur stdDeviation="2"/>
<feColorMatrix type="matrix" values="0 0 0 0 0 0 0 0 0 0 0 0 0 0 0 0 0 0 0.25 0"/>
<feBlend mode="normal" in2="BackgroundImageFix" result="effect1_dropShadow"/>
<feColorMatrix in="SourceAlpha" type="matrix" values="0 0 0 0 0 0 0 0 0 0 0 0 0 0 0 0 0 0 127 0"/>
<feOffset dy="4"/>
<feGaussianBlur stdDeviation="2"/>
<feColorMatrix type="matrix" values="0 0 0 0 0 0 0 0 0 0 0 0 0 0 0 0 0 0 0.25 0"/>
<feBlend mode="normal" in2="effect1_dropShadow" result="effect2_dropShadow"/>
<feBlend mode="normal" in="SourceGraphic" in2="effect2_dropShadow" result="shape"/>
</filter>
</defs>
</svg>
