<svg width="88" height="84" viewBox="0 0 88 84" fill="none" xmlns="http://www.w3.org/2000/svg">
<g filter="url(#filter0_dd)">
<path d="M59.4371 52.9425C62.3396 52.695 64.5796 50.1425 64.4371 47.095C64.2796 44.0475 61.7796 41.6025 58.7471 41.6025H58.5371C57.0268 41.6566 55.5999 42.3082 54.5699 43.4141C53.5399 44.52 52.9913 45.9897 53.0446 47.5C53.1471 49.1025 53.7971 50.39 54.6971 51.34C51.1946 58.1375 45.9596 63.1275 38.0046 67.33C32.6671 70.1175 27.0271 71.1725 21.5346 70.4175C16.9371 69.78 13.3446 67.725 11.1446 64.4275C7.84713 59.4275 7.54713 54.05 10.2971 48.6475C12.2996 44.755 15.2971 41.9 17.2871 40.5075C16.689 38.8325 16.2234 37.113 15.8946 35.365C1.10463 45.9525 2.61463 60.445 7.10713 67.2825C10.4546 72.2825 17.2871 75.4725 24.7746 75.4725C26.7821 75.4725 28.8771 75.33 30.9221 74.82C43.9196 72.32 53.7496 64.5325 59.3846 53.05L59.4371 52.9425ZM77.2621 40.4575C69.5296 31.3675 58.1346 26.3675 45.1546 26.3675H43.4471C42.6146 24.53 40.6596 23.375 38.4596 23.375H38.3171C35.1671 23.375 32.7171 26.0825 32.8196 29.2225C32.9271 32.215 35.4621 34.715 38.5096 34.715H38.7596C39.8409 34.671 40.8868 34.3176 41.7731 33.6968C42.6594 33.0759 43.3489 32.2137 43.7596 31.2125H45.6071C53.3046 31.2125 60.5846 33.465 67.2371 37.855C72.3146 41.1975 75.9746 45.6025 78.0171 50.8475C79.8146 55.13 79.7096 59.3375 77.8596 62.84C75.0221 68.32 70.2171 71.2225 63.8896 71.2225C59.8921 71.2225 55.9996 69.9725 53.9921 69.075C52.7946 70.065 50.7896 71.7175 49.3421 72.7225C53.7446 74.7125 58.1846 75.86 62.4821 75.86C72.2221 75.86 79.4621 70.3775 82.2096 65.08C85.2021 59.09 84.9571 48.9975 77.3121 40.3525L77.2621 40.4575ZM25.6221 54.74C25.6905 56.2109 26.3195 57.5998 27.3801 58.6213C28.4407 59.6428 29.8522 60.2194 31.3246 60.2325H31.5221C32.2728 60.2147 33.0123 60.0469 33.6972 59.7392C34.3821 59.4314 34.9985 58.9898 35.5102 58.4403C36.022 57.8908 36.4187 57.2446 36.677 56.5396C36.9354 55.8346 37.0502 55.085 37.0146 54.335C37.0146 51.3375 34.4246 48.8375 31.3771 48.8375H31.1671C30.9746 48.8375 30.6746 48.8375 30.4146 48.945C26.2746 41.9525 24.5271 34.4525 25.1771 26.365C25.5696 20.2725 27.5746 14.985 31.1671 10.585C34.1646 6.8475 39.7996 4.985 43.6546 4.895C54.4371 4.685 58.9421 18.135 59.2821 23.475L64.2821 24.9725C63.1221 8.5925 52.9421 0 43.2021 0C34.0621 0 25.6221 6.64 22.2246 16.38C17.5871 29.3775 20.6346 41.85 26.3246 51.85C25.8321 52.4875 25.5321 53.6475 25.6221 54.74Z" fill="#764ABC"/>
</g>
<defs>
<filter id="filter0_dd" x="0" y="0" width="87.9909" height="83.86" filterUnits="userSpaceOnUse" color-interpolation-filters="sRGB">
<feFlood flood-opacity="0" result="BackgroundImageFix"/>
<feColorMatrix in="SourceAlpha" type="matrix" values="0 0 0 0 0 0 0 0 0 0 0 0 0 0 0 0 0 0 127 0"/>
<feOffset dy="4"/>
<feGaussianBlur stdDeviation="2"/>
<feColorMatrix type="matrix" values="0 0 0 0 0 0 0 0 0 0 0 0 0 0 0 0 0 0 0.25 0"/>
<feBlend mode="normal" in2="BackgroundImageFix" result="effect1_dropShadow"/>
<feColorMatrix in="SourceAlpha" type="matrix" values="0 0 0 0 0 0 0 0 0 0 0 0 0 0 0 0 0 0 127 0"/>
<feOffset dy="4"/>
<feGaussianBlur stdDeviation="2"/>
<feColorMatrix type="matrix" values="0 0 0 0 0 0 0 0 0 0 0 0 0 0 0 0 0 0 0.25 0"/>
<feBlend mode="normal" in2="effect1_dropShadow" result="effect2_dropShadow"/>
<feBlend mode="normal" in="SourceGraphic" in2="effect2_dropShadow" result="shape"/>
</filter>
</defs>
</svg>
