<svg width="255" height="225" viewBox="0 0 255 225" fill="none" xmlns="http://www.w3.org/2000/svg">
<g clip-path="url(#clip0_201_10)">
<path d="M-46.926 89C-47.547 89 -47.703 88.689 -47.392 88.223L-44.13 84.029C-43.9191 83.7829 -43.657 83.5859 -43.3619 83.4516C-43.0669 83.3174 -42.7461 83.2493 -42.422 83.252H13.026C13.647 83.252 13.803 83.718 13.492 84.184L10.852 88.222C10.4783 88.7263 9.91974 89.0615 9.29898 89.154L-46.926 89ZM-70.379 103.285C-71 103.285 -71.156 102.974 -70.845 102.508L-67.583 98.314C-67.3721 98.0679 -67.11 97.8709 -66.8149 97.7366C-66.5199 97.6024 -66.1991 97.5343 -65.875 97.537H4.94998C5.07029 97.5201 5.19293 97.5342 5.30628 97.5779C5.41964 97.6216 5.51996 97.6935 5.59776 97.7868C5.67555 97.8802 5.72825 97.9918 5.75086 98.1112C5.77348 98.2305 5.76526 98.3537 5.72698 98.469L4.48398 102.2C4.38925 102.49 4.19961 102.74 3.94563 102.909C3.69164 103.078 3.38812 103.157 3.08398 103.132L-70.379 103.285ZM-32.792 117.574C-33.413 117.574 -33.569 117.108 -33.258 116.642L-31.084 112.759C-30.9133 112.496 -30.6846 112.275 -30.4154 112.113C-30.1463 111.952 -29.8438 111.854 -29.531 111.827H1.53298C2.15398 111.827 2.46498 112.293 2.46498 112.914L2.15398 116.642C2.13522 116.924 2.01467 117.19 1.81474 117.39C1.61481 117.59 1.3491 117.71 1.06698 117.729L-32.792 117.574ZM128.426 86.2C118.641 88.685 111.962 90.549 102.333 93.034C100.003 93.655 99.848 93.811 97.833 91.481C95.503 88.841 93.795 87.132 90.533 85.581C80.748 80.766 71.274 82.164 62.421 87.911C51.86 94.745 46.421 104.84 46.579 117.421C46.734 129.846 55.279 140.097 67.547 141.806C78.108 143.206 86.961 139.476 93.947 131.555C95.347 129.847 96.587 127.983 98.141 125.808H68.163C64.901 125.808 64.125 123.789 65.212 121.149C67.231 116.334 70.959 108.258 73.133 104.22C73.4668 103.472 74.0124 102.838 74.7024 102.396C75.3925 101.955 76.1968 101.725 77.016 101.735H133.551C133.24 105.929 133.24 110.122 132.619 114.316C131.01 125.375 126.628 135.848 119.883 144.758C108.7 159.51 94.1 168.673 75.618 171.158C60.397 173.177 46.263 170.226 33.838 160.907C28.3156 156.865 23.7055 151.706 20.3072 145.766C16.9089 139.825 14.7984 133.236 14.113 126.427C12.094 109.498 17.064 94.277 27.313 80.919C38.342 66.475 52.942 57.312 70.8 54.05C85.4 51.41 99.378 53.118 111.959 61.66C120.005 67.0104 126.277 74.6339 129.976 83.56C130.911 84.958 130.289 85.735 128.426 86.2Z" fill="#00ACD7"/>
<path d="M179.835 172.09C165.701 171.779 152.81 167.741 141.935 158.422C132.889 150.798 126.927 140.143 125.161 128.446C122.361 110.895 127.18 95.364 137.742 81.541C149.08 66.631 162.748 58.865 181.23 55.603C197.072 52.803 211.983 54.36 225.495 63.524C237.765 71.911 245.375 83.249 247.395 98.159C250.035 119.127 243.978 136.211 229.534 150.811C219.407 161.058 206.409 167.99 192.258 170.691C188.067 171.469 183.874 171.624 179.835 172.09V172.09ZM216.8 109.343C216.743 107.627 216.588 105.916 216.334 104.218C213.534 88.842 199.405 80.144 184.65 83.561C170.206 86.823 160.887 95.986 157.47 110.586C156.058 116.377 156.713 122.48 159.322 127.84C161.931 133.199 166.33 137.48 171.759 139.941C180.301 143.669 188.844 143.203 197.076 139.009C209.345 132.64 216.024 122.7 216.8 109.343V109.343Z" fill="#00ACD7"/>
</g>
<defs>
<clipPath id="clip0_201_10">
<rect width="254.5" height="225" fill="white"/>
</clipPath>
</defs>
</svg>
